<?xml version="1.0" standalone="no"?>
<!DOCTYPE svg PUBLIC "-//W3C//DTD SVG 20010904//EN"
 "http://www.w3.org/TR/2001/REC-SVG-20010904/DTD/svg10.dtd">
<svg version="1.0" xmlns="http://www.w3.org/2000/svg"
 width="640.000000pt" height="537.000000pt" viewBox="0 0 640.000000 537.000000"
 preserveAspectRatio="xMidYMid meet">

<g transform="translate(0.000000,537.000000) scale(0.100000,-0.100000)"
fill="#000000" stroke="none">
<path d="M2147 4792 c-37 -38 -63 -109 -77 -211 -15 -97 -9 -165 18 -218 20
-38 109 -129 189 -192 l42 -34 -21 -30 c-12 -17 -80 -92 -151 -166 -215 -226
-379 -444 -448 -596 -75 -167 -90 -377 -36 -517 53 -138 175 -275 296 -332 53
-24 78 -30 131 -29 l65 1 95 -236 c147 -368 236 -531 392 -718 122 -145 282
-275 423 -345 66 -33 107 -45 224 -65 78 -13 158 -31 177 -39 53 -22 131 -102
176 -181 63 -111 121 -128 236 -70 70 36 83 55 98 148 17 107 62 196 161 320
232 288 338 578 319 869 -17 269 -142 760 -282 1106 -19 46 -34 92 -34 102 0
9 18 48 41 85 54 89 69 136 76 231 7 96 -11 178 -59 269 -46 87 -192 231 -283
278 -125 65 -167 73 -375 73 -102 0 -251 -6 -331 -12 -211 -17 -312 2 -362 69
-25 33 -17 85 18 126 l24 29 -22 20 c-35 33 -59 41 -112 40 -63 -1 -132 31
-310 144 -152 95 -181 109 -233 109 -29 0 -45 -7 -65 -28z m1933 -835 c-3 -3
-36 30 -74 72 l-69 76 73 -72 c41 -40 72 -74 70 -76z m-25 3 c9 -10 22 -18 28
-17 14 3 74 -97 89 -148 21 -73 15 -165 -15 -227 -51 -103 -177 -200 -317
-242 -32 -10 -123 -21 -215 -27 -88 -5 -185 -14 -215 -20 -84 -17 -206 -69
-347 -150 -237 -134 -267 -150 -434 -223 -208 -91 -274 -128 -372 -211 -174
-146 -266 -152 -399 -27 -93 87 -127 200 -108 363 12 98 32 178 25 94 -3 -27
-2 -44 1 -37 5 11 57 43 69 42 3 0 11 4 18 10 38 32 140 89 149 84 7 -4 8 -2
4 4 -7 11 -3 14 26 16 7 1 31 18 53 39 22 20 85 60 140 87 55 28 127 66 160
85 118 68 381 203 445 229 149 61 446 145 560 159 8 1 17 5 20 8 6 8 143 34
245 47 108 14 297 53 330 68 39 17 39 17 60 -6z m-2268 -772 c-3 -8 -6 -5 -6
6 -1 11 2 17 5 13 3 -3 4 -12 1 -19z m2103 -741 c0 -2 -12 -14 -27 -28 l-28
-24 24 28 c23 25 31 32 31 24z m457 -19 c-3 -8 -6 -5 -6 6 -1 11 2 17 5 13 3
-3 4 -12 1 -19z m10 -90 c-2 -13 -4 -5 -4 17 -1 22 1 32 4 23 2 -10 2 -28 0
-40z m-202 -38 c18 -20 18 -21 -6 -46 -14 -13 -42 -27 -62 -31 -37 -6 -37 -5
-37 30 0 60 67 89 105 47z m212 -92 c-2 -13 -4 -5 -4 17 -1 22 1 32 4 23 2
-10 2 -28 0 -40z m-10 -140 c-3 -8 -6 -5 -6 6 -1 11 2 17 5 13 3 -3 4 -12 1
-19z"/>
</g>
</svg>
