<?xml version="1.0" encoding="UTF-8"?>
<svg width="210mm" height="297mm" version="1.1" xmlns="http://www.w3.org/2000/svg">
 <path d="m407.36 684.28c27.187 16.969 58.02 23.005 91.127 22.221 2.5791-5.2219 6.4602-7.9547 10.524-9.2194 4.221 2.7322 0.64755 9.99-3.8558 14.775 4.6086-2.0473 9.2364-4.2488 13.336-2.222-1.0894 5.0759-9.1291 5.5195-14.447 7.7772 5.3806 1.1927 12.957-1.5831 15.429 3.0019 1.1826 3.4-9.4638 3.514-14.318 3.6643 4.3375 1.4716 11.212 0.76932 12.298 5.0275-1.8896 3.1285-9.2567 1.9977-15.631 1.6386 5.1816 0.57637 6.3854 0.11875 11.051 4.3035-10.436 4.9888-17.692-5.3267-25.498-10.97-30.401 6.1321-59.243-0.20809-86.682-17.776" fill="#a40" stroke="#000" stroke-width="1px"/>
 <path d="m297.7 849.96c-57.032 2.3144-239.9 30.044-31.116-273.31 31.059-52.624 28.929-143.74-30.308-97.789-134.44 178.72-120.64-47.589-10.508-99.118 205.17-72.844 173.41 120.66 131.94 443.56" fill="#520" stroke="#000" stroke-width="1px"/>
 <path d="m158.74 492.67c26.366-52.073 68.107-131.85 143.02-98.987 58.512 46.547 43.402 134.85 17.288 162.62-73.897 81.05-73.565 123.79-108.44 180.69-34.154 89.773 45.663 88.121 78.581 90.346" fill="none" stroke="#000" stroke-width=".2"/>
 <path d="m418.05 442.17c2.0986 21.256 2.0711 56.927-2.0627 76.106-15.192 10.165-30.385 6.1666-45.577 5.4993 7.3173-28.343 18.317-70.914 48.229-81.802" fill="#803300" stroke="#000" stroke-width="1px"/>
 <path d="m455.85 448.18c-9.0251 19.95-11.735 54.574-14.538 76.597l34.969 17.284c1.5585-32.841 12.376-82.288-20.431-93.881z" fill="#803300" stroke="#000" stroke-width="1px"/>
 <path d="m427.91 495.79c-1.3383-0.0781 0.90033-0.17443-0.43621-0.15222-0.4505 7e-3 -3.9221-4.7359-4.3721-4.7172-0.50318 0.022-1.5616 4.8747-2.064 4.9093-13.8 0.95114-27.256 7.0522-38.217 16.332-9.4925 8.0038-17.319 18.109-23.299 29.37-0.93867 1.7674-8.9042 7.4915-9.7512 9.3122-0.83539 1.7958 5.4464-0.31238 4.7016 1.5281-1.9942 4.9275-3.6616 10.003-4.9895 15.159-1.4724 5.4818-2.5654 11.074-3.2808 16.716-0.26467 2.084-4.799 2.2108-3.3887 7.0551 0.43995 1.5113 2.5374 2.3552 2.4742 3.9275-0.45561 11.334 0.58622 22.712 3.111 33.654 3.2884 13.803 9.1672 26.889 17.543 37.822 9.7426 12.559 23.207 22.07 38.331 24.913 14.768 3.0948 30.515-0.17817 43.676-8.3364 12.36-7.3944 22.575-18.649 30.286-31.393 4.7886-8.0469 8.591-16.739 11.385-25.786 0.68814-2.2284 0.38826 0.34306 3.452-3.9958 2.0529-2.9072-0.36322-7.9377 0.12052-10.559 1.0098-5.47 1.6695-11.009 1.9746-16.558 0.87829-16.33-1.2885-32.949-6.8505-48.046-0.63432-1.7218-3.6872-5.8896-2.036-5.1034 6.556 3.1219-1.0553-2.3866-1.6173-3.5617-1.1002-2.3004-2.2883-4.5532-3.5658-6.7509-8.5205-14.951-21.548-27.206-37.148-32.596-1.0319-0.35334-2.535-0.59253-4.0574-0.90226-1.7072-0.34743-3.4387-0.78341-4.5569-1.5681-2.0947-1.47-1.5428-5.3712-3.8183-5.5776-0.86409-0.0781-2.7375 4.9358-3.6056 4.9061z" fill="#a40" stroke="#000" stroke-width="1.0802"/>
 <path d="m147.19 526.5c24.559-48.508 63.438-122.82 133.21-92.211 54.501 43.361 40.426 125.62 16.103 151.49-68.831 75.501-68.522 115.32-101.01 168.32-31.813 83.627 42.533 82.088 73.194 84.161" fill="none" stroke="#000" stroke-width=".2"/>
 <path d="m180.2 491.81c26.366-52.073 68.107-131.85 143.02-98.987 58.512 46.547 43.402 134.85 17.288 162.62-73.897 81.05-73.565 123.79-108.44 180.69-34.154 89.773 45.663 88.121 78.581 90.346" fill="none" stroke="#000" stroke-width=".2"/>
 <path d="m345.27 611.3c-13.684 10.458-26.09 21.207-36.984 32.342-1.793 1.8326-10.213 2.8423-11.923 4.6962-0.94603 1.0256 4.7886 2.8878 3.8684 3.9201-1.963 2.2023-3.8668 4.42-5.7096 6.6539-1.3028 1.5792-10.632 3.9998-11.873 5.5954-3.1084 3.9959 2.0351 7.2106-0.67418 11.315-6.5973 9.9938-11.983 20.32-16.021 31.033-0.65609 1.7406-8.2222 10.435-8.8066 12.197-0.61846 1.8642 5.7492-3.2037 5.2125-1.3158-3.434 12.079-5.1814 24.649-5.0603 37.785 0.0199 2.196-4.2907 8.8748-3.9491 11.08 0.60282 3.8921 4.2692-2.7682 4.3314-1.9268 0.27699 3.7484 0.70344 7.5425 1.2834 11.384 0.37738 2.4997-3.3476 11.13-2.8391 13.67 0.24702 1.234 4.677-3.6378 4.9554-2.394 3.6659 16.38 10.059 33.606 19.467 51.793 7.2168 26.976 129.99 34.073 194.26 53.31 32.856-0.0493 10.824-17.544 2.6829-21.997l-83.703-25.479 30.284-5.9295 75.658 0.66718c50.778 2.5343 31.014-16.986 21.115-17.934-24.204-0.36992-38.303-1.3981-61.132-10.92-19.429-51.502 16.633-100.9 9.1513-146.7" fill="#a40" stroke="#000" stroke-width="1px"/>
 <path d="m421.75 839.89c25.169-31.395 22.393-103.57 39.312-165.47-24.906 8.9531-60.57 15.019-76.68-19.998 1.0547 10.182 0.97194 20.212 0.0451 29.976-0.22223 2.341 2.8409 11.055 2.5257 13.364-0.2628 1.9248-3.8904-2.5506-4.2127-0.65024-2.5383 14.967-6.8487 29.149-11.786 42.097-0.63688 1.6702 0.38273 8.3196-0.27257 9.9478-0.76531 1.9016-3.2084-1.2258-3.9916 0.61556-1.495 3.5152-3.0154 6.918-4.5339 10.198 49.823 8.8986 46.834 42.957 32.228 85.549" fill="#ffe6d5" stroke="#000" stroke-width="1px"/>
 <path transform="matrix(1.5587 .17403 -.17807 1.5941 1219.3 -612.25)" d="m-439.42 795.78a6.3135 12.122 0 1 1 -12.627 0 6.3135 12.122 0 1 1 12.627 0z" fill="#fff" stroke="#fff" stroke-linejoin="round" stroke-width="1.0718"/>
 <path transform="matrix(1.5681 .033493 -.034269 1.6036 1203 -679.92)" d="m-439.42 795.78a6.3135 12.122 0 1 1 -12.627 0 6.3135 12.122 0 1 1 12.627 0z" fill="#fff" stroke="#fff" stroke-linejoin="round" stroke-width="1.0718"/>
 <path transform="matrix(2.1944 .16069 -.16073 2.1938 1748.9 -1022.3)" d="m-563.29 775.01a2.7148 4.6088 0 1 1 -5.4296 0 2.7148 4.6088 0 1 1 5.4296 0z" stroke="#000" stroke-linejoin="round" stroke-width=".77273"/>
 <path transform="matrix(2.185 -.25902 .25908 2.1844 1405.8 -1282.1)" d="m-560.26 786a0.37881 0.56821 0 1 1 -0.75761 0 0.37881 0.56821 0 1 1 0.75761 0z" fill="#fff" stroke="#fff" stroke-linejoin="round" stroke-width=".77273"/>
 <path transform="matrix(2.1957 .14163 -.14166 2.1952 1828.5 -1031.3)" d="m-563.29 775.01a2.7148 4.6088 0 1 1 -5.4296 0 2.7148 4.6088 0 1 1 5.4296 0z" stroke="#000" stroke-linejoin="round" stroke-width=".77273"/>
 <path transform="matrix(2.1826 -.27798 .27805 2.1821 1467.4 -1287.1)" d="m-553.82 786.76a0.50508 0.69448 0 1 1 -1.0102 0 0.50508 0.69448 0 1 1 1.0102 0z" fill="#fff" stroke="#fff" stroke-linejoin="round" stroke-width=".77273"/>
 <path transform="matrix(2.0507 -.24993 .24588 2.5972 1381.9 -1561.8)" d="m-542.96 796.29a11.869 12.122 0 1 1 -23.739 0 11.869 12.122 0 1 1 23.739 0z" fill="#fff" stroke="#fff" stroke-linejoin="round" stroke-width=".73241"/>
 <path d="m420.15 657.44c4.647 7.9711 9.0463 14.93 20.546-0.12956 6.7262 15.901 12.54 9.273 20.166 0.40563" fill="none" stroke="#000" stroke-width="1px"/>
 <path d="m450.06 637.87c-2.4593 4.0932-9.3725 22.102-10.371 17.886-3.0009-1.3125-4.5569-12.982-7.7762-19.724" stroke="#000" stroke-width="1px"/>
 <path d="m423.87 655.8c-2.9278-0.0662-5.3292 0.72253-6.1363 4.1001" fill="none" stroke="#000" stroke-width="1px"/>
 <path d="m462.88 660.01c-1.0841-2.8291-2.6481-4.8327-5.665-4.3371" fill="none" stroke="#000" stroke-width="1px"/>
 <path d="m420.88 628.72c7.2947 6.7796 24.826 16.752 40.838 2.9145" fill="none" stroke="#000" stroke-width="1px"/>
 <path d="m385.15 510.15c8.1355-6.194 16.487-10.661 25.146-12.668 0.17603-7.9825 3.0778-15.434 1.2769-24.158-15.199 4.8931-18.204 24.256-26.423 36.826z" fill="#f95"/>
 <path d="m452.64 502.49c5.6639 3.5059 11.293 7.2903 16.698 12.864 0.70999-12.978-4.9955-33.769-8.5457-37.611-4.9388 7.2969-5.9677 15.99-7.367 24.55" fill="#f95"/>
 <path d="m484.37 879.22c3.1933 0.1849 5.5594 2.6621 7.8287 5.619" fill="none" stroke="#000" stroke-width="1px"/>
 <path d="m482.22 884.93c3.3559-0.51535 6.3125 1.2379 8.0181 4.3563" fill="none" stroke="#000" stroke-width="1px"/>
 <path d="m480.58 888.72c1.539 0.28626 3.4042 1.4699 3.7881 2.7464" fill="none" stroke="#000" stroke-width="1px"/>
 <path d="m525 825.47c3.1933 0.1849 5.5594 2.6621 7.8287 5.619" fill="none" stroke="#000" stroke-width="1px"/>
 <path d="m522.86 831.19c3.3559-0.51535 6.3125 1.2379 8.0181 4.3563" fill="none" stroke="#000" stroke-width="1px"/>
 <path d="m521.53 835.29c1.539 0.28626 3.4042 1.4699 3.7881 2.7464" fill="none" stroke="#000" stroke-width="1px"/>
 <rect transform="matrix(.51825 .85523 -.85523 .51825 0 0)" x="850.27" y="-114.6" width="6.8451" height="34.773" rx="7.1429" ry="7.1429" fill="#502d16"/>
 <path transform="matrix(.50965 .36408 -.44564 .62382 573.8 323.68)" d="m320 511.65a60.714 83.571 0 1 1 -121.43 0 60.714 83.571 0 1 1 121.43 0z" fill="#c87137"/>
 <path d="m482.01 660.98c-6.9294-1.3249-14.345-1.5234-19.972 1.6125-4.1865 2.3396-6.4456 6.9296-6.2458 11.843 0.23214 7.1092-3.5701 9.4112 8.2081 20.584 35.632 13.773 43.797 26.761 65.893 44.205 10.397 6.505 14.093 1.3852 19.538-1.8109 4.2713-2.4292 6.413-7.249 6.0646-12.285-0.38145-6.6244-3.6496-13.251-7.6061-19.215-21.976-15.545-42.175-32.738-65.88-44.933z" fill="#784421"/>
 <path d="m468.76 665.56c-0.0744 1.7026 0.50961 3.2495 1.7738 4.1526 0.89808 0.64156 2.0125 0.86206 3.1415 0.71315-0.51057-0.25472-1.0075-0.54306-1.4871-0.88572-1.4996-1.0713-2.6625-2.4488-3.4282-3.98z" fill="#280b0b"/>
 <path d="m472.54 673.41c-0.0744 1.7026 0.50962 3.2495 1.7738 4.1526 0.89809 0.64158 2.0125 0.86208 3.1415 0.71315-0.51059-0.25472-1.0075-0.54306-1.4872-0.88572-1.4996-1.0713-2.6625-2.4488-3.4282-3.98z" fill="#280b0b"/>
 <path d="m509.01 696.78c-0.0744 1.7026 0.50961 3.2495 1.7738 4.1526 0.89809 0.64156 2.0125 0.86207 3.1415 0.71315-0.51056-0.25473-1.0075-0.54306-1.4871-0.88572-1.4996-1.0713-2.6625-2.4488-3.4282-3.98z" fill="#280b0b"/>
 <path d="m524.03 716.26c-0.0744 1.7026 0.50961 3.2495 1.7738 4.1526 0.89809 0.64158 2.0125 0.86206 3.1415 0.71315-0.51057-0.25472-1.0075-0.54305-1.4872-0.88572-1.4996-1.0713-2.6625-2.4488-3.4281-3.98z" fill="#280b0b"/>
 <path d="m495.83 697.79c-0.0744 1.7026 0.50962 3.2495 1.7738 4.1526 0.89808 0.64158 2.0125 0.86207 3.1415 0.71315-0.51058-0.25472-1.0075-0.54305-1.4872-0.88572-1.4996-1.0713-2.6625-2.4488-3.4282-3.98z" fill="#280b0b"/>
 <path d="m495.07 676.72c-0.0744 1.7026 0.50962 3.2495 1.7738 4.1526 0.89809 0.64156 2.0125 0.86206 3.1415 0.71315-0.51058-0.25473-1.0075-0.54307-1.4872-0.88573-1.4996-1.0713-2.6625-2.4488-3.4282-3.98z" fill="#280b0b"/>
 <path d="m463.14 684.2c-0.0744 1.7026 0.50962 3.2495 1.7738 4.1526 0.89808 0.64158 2.0125 0.86208 3.1415 0.71315-0.51058-0.25471-1.0075-0.54305-1.4872-0.88572-1.4996-1.0713-2.6625-2.4488-3.4282-3.98z" fill="#280b0b"/>
 <path d="m479.89 685.73c-0.0744 1.7026 0.50961 3.2495 1.7738 4.1526 0.89809 0.64157 2.0125 0.86207 3.1415 0.71316-0.51057-0.25473-1.0075-0.54306-1.4872-0.88574-1.4996-1.0713-2.6625-2.4488-3.4282-3.98z" fill="#280b0b"/>
 <path d="m486.41 676.59c-0.0744 1.7026 0.50962 3.2495 1.7738 4.1526 0.89809 0.64156 2.0125 0.86206 3.1415 0.71315-0.51058-0.25473-1.0075-0.54306-1.4872-0.88574-1.4996-1.0713-2.6625-2.4488-3.4282-3.98z" fill="#280b0b"/>
 <path d="m488.55 667.01c-0.0744 1.7026 0.50962 3.2495 1.7738 4.1526 0.89807 0.64157 2.0125 0.86207 3.1415 0.71315-0.51058-0.25472-1.0075-0.54306-1.4872-0.88572-1.4996-1.0713-2.6625-2.4488-3.4282-3.98z" fill="#280b0b"/>
 <path d="m516.43 685.92c-0.0744 1.7026 0.50962 3.2495 1.7738 4.1526 0.8981 0.64157 2.0125 0.86207 3.1415 0.71316-0.51059-0.25472-1.0075-0.54307-1.4872-0.88573-1.4996-1.0713-2.6625-2.4488-3.4282-3.98z" fill="#280b0b"/>
 <path d="m533.52 697.8c-0.0744 1.7026 0.50961 3.2495 1.7738 4.1526 0.89808 0.64156 2.0125 0.86206 3.1415 0.71315-0.51059-0.25473-1.0075-0.54307-1.4872-0.88573-1.4996-1.0713-2.6625-2.4488-3.4282-3.98z" fill="#280b0b"/>
 <path d="m527.57 703.3c-0.0744 1.7026 0.50961 3.2495 1.7738 4.1526 0.8981 0.64157 2.0125 0.86206 3.1415 0.71315-0.51057-0.25472-1.0075-0.54306-1.4872-0.88573-1.4996-1.0713-2.6625-2.4488-3.4282-3.98z" fill="#280b0b"/>
 <path d="m537.91 717.08c-0.0743 1.7026 0.50961 3.2495 1.7738 4.1526 0.89809 0.64156 2.0125 0.86206 3.1415 0.71315-0.51057-0.25472-1.0075-0.54306-1.4872-0.88573-1.4996-1.0713-2.6625-2.4488-3.4282-3.98z" fill="#280b0b"/>
 <path d="m528.46 729.85c-0.0744 1.7026 0.50962 3.2495 1.7738 4.1526 0.89808 0.64157 2.0125 0.86207 3.1415 0.71316-0.51058-0.25473-1.0075-0.54306-1.4872-0.88573-1.4996-1.0713-2.6625-2.4488-3.4282-3.98z" fill="#280b0b"/>
 <path d="m505.06 713.14c-0.0744 1.7026 0.50962 3.2495 1.7738 4.1526 0.89809 0.64158 2.0125 0.86208 3.1415 0.71315-0.51057-0.25472-1.0075-0.54306-1.4872-0.88572-1.4996-1.0713-2.6625-2.4488-3.4282-3.98z" fill="#280b0b"/>
 <path d="m510.6 703.97c-0.0744 1.7026 0.5096 3.2495 1.7738 4.1526 0.89809 0.64157 2.0125 0.86206 3.1415 0.71315-0.51058-0.25473-1.0075-0.54305-1.4872-0.88573-1.4996-1.0713-2.6625-2.4488-3.4281-3.98z" fill="#280b0b"/>
 <path d="m494.08 707.31c-0.0743 1.7026 0.50962 3.2495 1.7738 4.1526 0.89807 0.64156 2.0125 0.86206 3.1415 0.71315-0.51058-0.25472-1.0075-0.54306-1.4872-0.88572-1.4996-1.0713-2.6625-2.4489-3.4282-3.98z" fill="#280b0b"/>
 <path d="m476.93 697.41c-0.0744 1.7026 0.5096 3.2495 1.7738 4.1526 0.89809 0.64158 2.0125 0.86207 3.1415 0.71315-0.51056-0.25472-1.0075-0.54305-1.4871-0.88572-1.4996-1.0713-2.6625-2.4488-3.4282-3.98z" fill="#280b0b"/>
 <path d="m504.43 685.76c-0.0744 1.7026 0.50962 3.2495 1.7738 4.1526 0.89809 0.64157 2.0125 0.86207 3.1415 0.71315-0.51057-0.25473-1.0075-0.54307-1.4872-0.88573-1.4996-1.0713-2.6625-2.4488-3.4282-3.98z" fill="#280b0b"/>
 <path d="m461.58 751.39c0.59265 2.1791 2.1632 4.4308 4.5427 6.1306 1.6904 1.2076 3.5478 1.9588 5.274 2.2366-0.91511-0.5437-1.8226-1.1253-2.7254-1.7703-2.8226-2.0164-5.2396-4.2898-7.0914-6.5969z" fill="#a05a2c"/>
 <path d="m442.87 752.15c0.59264 2.1791 2.1632 4.4308 4.5427 6.1306 1.6904 1.2076 3.5478 1.9588 5.274 2.2366-0.9151-0.54371-1.8226-1.1253-2.7254-1.7703-2.8226-2.0164-5.2396-4.2898-7.0913-6.5969z" fill="#a05a2c"/>
 <path d="m441.75 770.2c0.59264 2.1791 2.1632 4.4308 4.5427 6.1306 1.6904 1.2076 3.5478 1.9588 5.274 2.2366-0.9151-0.54371-1.8226-1.1254-2.7254-1.7703-2.8226-2.0164-5.2396-4.2898-7.0914-6.5969z" fill="#a05a2c"/>
 <path d="m452.93 718.29c0.59263 2.1791 2.1632 4.4308 4.5427 6.1306 1.6904 1.2076 3.5478 1.9588 5.274 2.2366-0.9151-0.54371-1.8226-1.1254-2.7254-1.7703-2.8226-2.0164-5.2396-4.2898-7.0914-6.5969z" fill="#a05a2c"/>
 <path d="m467.25 704.43c0.59264 2.1791 2.1632 4.4308 4.5427 6.1306 1.6904 1.2076 3.5478 1.9588 5.274 2.2366-0.91509-0.5437-1.8226-1.1253-2.7254-1.7703-2.8226-2.0164-5.2396-4.2898-7.0914-6.5969z" fill="#a05a2c"/>
 <path d="m475.21 722.43c0.59264 2.1791 2.1632 4.4308 4.5427 6.1306 1.6904 1.2076 3.5478 1.9588 5.274 2.2366-0.9151-0.5437-1.8226-1.1253-2.7254-1.7703-2.8226-2.0164-5.2396-4.2898-7.0913-6.5969z" fill="#a05a2c"/>
 <path d="m485.55 743.28c0.59263 2.1791 2.1632 4.4308 4.5427 6.1306 1.6904 1.2076 3.5478 1.9588 5.274 2.2366-0.9151-0.54371-1.8226-1.1253-2.7254-1.7703-2.8226-2.0164-5.2396-4.2898-7.0913-6.5969z" fill="#a05a2c"/>
 <path d="m479.91 762.47c0.59264 2.1791 2.1632 4.4308 4.5427 6.1306 1.6904 1.2076 3.5478 1.9588 5.274 2.2366-0.91511-0.54371-1.8226-1.1253-2.7254-1.7703-2.8226-2.0164-5.2396-4.2898-7.0914-6.5969z" fill="#a05a2c"/>
 <path d="m458.78 736.94c0.59264 2.1791 2.1632 4.4308 4.5427 6.1306 1.6904 1.2076 3.5478 1.9588 5.274 2.2366-0.9151-0.54371-1.8226-1.1253-2.7254-1.7703-2.8226-2.0164-5.2396-4.2898-7.0914-6.5969z" fill="#a05a2c"/>
 <path d="m497.04 730.96c0.59265 2.1791 2.1632 4.4308 4.5427 6.1306 1.6904 1.2076 3.5478 1.9588 5.274 2.2366-0.9151-0.54372-1.8226-1.1253-2.7254-1.7703-2.8226-2.0164-5.2396-4.2898-7.0914-6.5969z" fill="#a05a2c"/>
 <path d="m463.46 773.26c0.59264 2.1791 2.1632 4.4308 4.5427 6.1306 1.6904 1.2076 3.5478 1.9588 5.274 2.2366-0.9151-0.54371-1.8226-1.1253-2.7254-1.7703-2.8226-2.0164-5.2396-4.2898-7.0914-6.5969z" fill="#a05a2c"/>
 <path d="m372.16 705.53c27.187 16.969 58.02 23.005 91.127 22.221 2.5791-5.2219 6.4602-7.9547 10.524-9.2194 4.221 2.7322 0.64755 9.99-3.8558 14.775 4.6086-2.0473 9.2364-4.2488 13.336-2.222-1.0894 5.0759-9.1291 5.5195-14.447 7.7772 5.3806 1.1927 12.957-1.5831 15.429 3.0019 1.1826 3.4-9.4638 3.514-14.318 3.6643 4.3375 1.4716 11.212 0.76932 12.298 5.0275-1.8896 3.1285-9.2567 1.9977-15.631 1.6386 5.1816 0.57637 6.3854 0.11875 11.051 4.3035-10.436 4.9888-17.692-5.3267-25.498-10.97-30.401 6.1321-59.243-0.20809-86.682-17.776" fill="#a40" stroke="#000" stroke-width="1px"/>
</svg>
